<svg width="350" height="100" viewBox="0 0 350 100" fill="none" xmlns="http://www.w3.org/2000/svg">
    <path d="M34.3486 99.898C27.2556 99.9344 20.3092 97.865 14.3763 93.9479L13.8587 93.5858C5.18265 87.5923 0 78.0352 0 68.0291V31.2713H16.9496V40.1258H8.78751V68.0291C8.78751 73.7981 11.1776 79.3064 15.5192 83.5652L22.2401 45.3298H46.5145L53.1923 83.5616C57.5303 79.2991 59.9132 73.7836 59.9132 68.0291V40.1439H51.7295V31.2713H68.6971V68.0291C68.6971 85.6041 53.2857 99.898 34.3486 99.898ZM23.5016 88.8706C26.9396 90.3099 30.6257 91.0508 34.3486 91.0508C38.0714 91.0508 41.7576 90.3099 45.1955 88.8706L39.0855 53.7787H29.6727L23.5016 88.8706Z" fill="black"/>
    <path d="M46.5684 40.1258H22.1287V31.2713H46.5684V40.1258Z" fill="black"/>
    <path d="M68.6971 26.0745H51.7295V17.4482H68.6971V26.0745Z" fill="black"/>
    <path d="M16.964 26.0745H0V17.4482H16.964V26.0745Z" fill="black"/>
    <path d="M46.5684 26.0745H22.1287V17.4482H46.5684V26.0745Z" fill="black"/>
    <path d="M46.5684 12.2478H22.1287V8.21709L32.742 0H35.9407L46.5684 8.21709V12.2478Z" fill="black"/>
    <path d="M114.598 40.4372C119.713 40.4372 124.006 41.2431 127.476 42.8549L126.181 50.1929C122.794 48.8428 119.183 48.1534 115.541 48.1614C113.74 48.1349 111.947 48.3956 110.228 48.9338C108.713 49.4131 107.328 50.2378 106.181 51.3438C105.006 52.5099 104.116 53.9352 103.582 55.5071C102.928 57.451 102.616 59.4953 102.662 61.5474C102.662 65.667 103.735 68.7824 105.882 70.8937C108.028 73.0049 111.189 74.0606 115.364 74.0606C116.235 74.0634 117.104 73.9936 117.963 73.852C118.667 73.7441 119.359 73.5735 120.033 73.3422V62.2735H128.711V78.6178C126.649 79.5789 124.475 80.2744 122.241 80.6879C119.547 81.2232 116.806 81.482 114.061 81.4603C111.062 81.517 108.077 81.0357 105.245 80.0391C102.772 79.1596 100.507 77.7736 98.5915 75.9685C96.7711 74.2049 95.3511 72.0652 94.4289 69.6964C93.435 67.1033 92.9432 64.3424 92.9801 61.5629C92.9418 58.6122 93.4326 55.6789 94.4289 52.9041C95.3353 50.3972 96.7773 48.1215 98.6528 46.2381C100.589 44.3474 102.905 42.8962 105.445 41.9821C108.38 40.9204 111.48 40.3971 114.598 40.4372Z" fill="black"/>
    <path d="M160.133 73.1105H145.108L142.685 80.7806H132.72L147.315 41.1479H157.948L172.59 80.7806H162.624L160.133 73.1105ZM147.553 65.3863H157.649L152.628 48.648L147.553 65.3863Z" fill="black"/>
    <path d="M206.787 53.7074C206.836 56.2084 206.057 58.6546 204.572 60.6591C202.992 62.7204 200.866 64.2895 198.439 65.1855L211.371 80.7729H199.405L188.596 67.0316H186.825V80.7806H177.136V41.1479H189.662C191.948 41.1292 194.229 41.3885 196.453 41.9203C198.383 42.367 200.22 43.1513 201.881 44.2375C203.377 45.2254 204.613 46.5638 205.484 48.1382C206.387 49.8505 206.836 51.7689 206.787 53.7074ZM197.458 53.885C197.505 53.0981 197.336 52.3134 196.971 51.6161C196.607 50.9188 196.059 50.3357 195.388 49.9302C193.602 48.9738 191.589 48.5302 189.57 48.648H186.794V59.7477H189.156C191.752 59.7477 193.778 59.2327 195.235 58.2028C195.938 57.7319 196.511 57.0886 196.9 56.3333C197.289 55.578 197.481 54.7356 197.458 53.885Z" fill="black"/>
    <path d="M214.867 41.1479H226.856C230.095 41.1142 233.316 41.6179 236.392 42.6386C239.098 43.527 241.612 44.921 243.805 46.7479C245.863 48.4881 247.513 50.6656 248.637 53.1241C249.761 55.5827 250.331 58.2614 250.306 60.9681C250.331 63.6752 249.761 66.3543 248.639 68.8139C247.516 71.2735 245.869 73.4528 243.813 75.196C241.622 77.0257 239.107 78.42 236.4 79.3053C233.324 80.3233 230.102 80.8243 226.864 80.7883H214.867V41.1479ZM227.446 73.0487C229.269 73.071 231.082 72.7892 232.812 72.2145C234.343 71.7072 235.758 70.8985 236.975 69.8355C238.143 68.7967 239.063 67.5055 239.666 66.0583C240.318 64.4431 240.638 62.7116 240.609 60.9681C240.643 59.2282 240.328 57.4993 239.681 55.8856C239.078 54.4384 238.158 53.1472 236.99 52.1085C235.775 51.0371 234.36 50.2205 232.828 49.7062C231.097 49.1316 229.284 48.8497 227.462 48.872H224.572V73.0487H227.446Z" fill="black"/>
    <path d="M265.783 80.7806H256.101V41.1479H265.783V80.7806Z" fill="black"/>
    <path d="M298.087 73.1105H283.031L280.609 80.7806H270.643L285.27 41.1479H295.902L310.552 80.7806H300.586L298.087 73.1105ZM285.507 65.3863H295.611L290.59 48.6635L285.507 65.3863Z" fill="black"/>
    <path d="M340.671 80.7806L324.427 57.1601V80.7806H315.097V41.1479H324.427L340.671 64.7761V41.1479H350V80.7806H340.671Z" fill="black"/>
</svg>
