<svg width="162" height="47" viewBox="0 0 162 47" fill="none" xmlns="http://www.w3.org/2000/svg">
    <path d="M15.8985 46.9998C12.6155 47.0169 9.40025 46.0433 6.65417 44.2004L6.41462 44.03C2.39883 41.2102 0 36.7138 0 32.0062V14.7125H7.84527V18.8783H4.06736V32.0062C4.06736 34.7204 5.17362 37.3119 7.18318 39.3156L10.294 21.3267H21.5296L24.6204 39.3139C26.6283 37.3085 27.7313 34.7136 27.7313 32.0062V18.8868H23.9434V14.7125H31.797V32.0062C31.797 40.2748 24.6637 46.9998 15.8985 46.9998ZM10.8779 41.8117C12.4692 42.4888 14.1753 42.8374 15.8985 42.8374C17.6216 42.8374 19.3278 42.4888 20.919 41.8117L18.091 25.3017H13.7342L10.8779 41.8117Z" fill="white"/>
    <path d="M21.5545 18.8783H10.2424V14.7125H21.5545V18.8783Z" fill="white"/>
    <path d="M31.797 12.2675H23.9434V8.20899H31.797V12.2675Z" fill="white"/>
    <path d="M7.85192 12.2675H0V8.20899H7.85192V12.2675Z" fill="white"/>
    <path d="M21.5545 12.2675H10.2424V8.20899H21.5545V12.2675Z" fill="white"/>
    <path d="M21.5545 5.76231H10.2424V3.86596L15.1549 0H16.6354L21.5545 3.86596V5.76231Z" fill="white"/>
    <path d="M53.0425 19.0248C55.4103 19.0248 57.3973 19.404 59.0034 20.1623L58.4038 23.6146C56.8361 22.9794 55.1648 22.6551 53.4789 22.6589C52.6457 22.6464 51.8158 22.769 51.02 23.0223C50.3188 23.2478 49.6777 23.6357 49.1466 24.1561C48.6029 24.7047 48.1911 25.3753 47.9437 26.1149C47.6409 27.0294 47.4968 27.9912 47.518 28.9567C47.518 30.8948 48.0147 32.3606 49.0082 33.3539C50.0017 34.3472 51.4647 34.8438 53.3973 34.8438C53.8002 34.8451 54.2025 34.8123 54.6001 34.7457C54.9258 34.695 55.2464 34.6147 55.5581 34.5059V29.2983H59.5747V36.9879C58.6204 37.4401 57.6142 37.7673 56.58 37.9619C55.3333 38.2137 54.0648 38.3355 52.7941 38.3253C51.406 38.3519 50.0244 38.1255 48.7137 37.6566C47.569 37.2428 46.5204 36.5907 45.6339 35.7415C44.7913 34.9117 44.1341 33.9051 43.7072 32.7906C43.2472 31.5706 43.0195 30.2717 43.0366 28.9639C43.0189 27.5757 43.2461 26.1957 43.7072 24.8902C44.1268 23.7107 44.7942 22.6401 45.6623 21.754C46.5587 20.8644 47.6306 20.1817 48.806 19.7516C50.1644 19.2521 51.5993 19.0059 53.0425 19.0248Z" fill="white"/>
    <path d="M74.1187 34.3969H67.1643L66.043 38.0055H61.4304L68.1861 19.3591H73.1075L79.8845 38.0055H75.2719L74.1187 34.3969ZM68.2961 30.7628H72.9691L70.645 22.8878L68.2961 30.7628Z" fill="white"/>
    <path d="M95.7129 25.2681C95.7358 26.4448 95.375 27.5957 94.6875 28.5388C93.9563 29.5085 92.9723 30.2468 91.849 30.6683L97.8348 38.0018H92.296L87.2931 31.5369H86.4735V38.0055H81.9886V19.3591H87.7863C88.8447 19.3504 89.9002 19.4724 90.93 19.7225C91.8231 19.9327 92.6734 20.3017 93.4421 20.8128C94.1346 21.2775 94.7068 21.9072 95.1097 22.648C95.5279 23.4535 95.7356 24.3561 95.7129 25.2681ZM91.3948 25.3517C91.4165 24.9815 91.3387 24.6123 91.1698 24.2842C91.0009 23.9561 90.7473 23.6818 90.4368 23.4911C89.61 23.0411 88.6784 22.8324 87.7437 22.8878H86.4593V28.1099H87.5521C88.7538 28.1099 89.6917 27.8677 90.3658 27.3831C90.6914 27.1616 90.9566 26.8589 91.1366 26.5036C91.3165 26.1482 91.4054 25.7519 91.3948 25.3517Z" fill="white"/>
    <path d="M99.4527 19.3591H105.002C106.501 19.3433 107.992 19.5803 109.416 20.0605C110.668 20.4785 111.832 21.1343 112.847 21.9938C113.799 22.8126 114.563 23.837 115.083 24.9937C115.604 26.1504 115.867 27.4107 115.856 28.6841C115.867 29.9577 115.604 31.2182 115.084 32.3754C114.565 33.5326 113.802 34.5579 112.851 35.3781C111.837 36.2388 110.672 36.8949 109.42 37.3114C107.996 37.7903 106.504 38.026 105.006 38.0091H99.4527V19.3591ZM105.275 34.3678C106.119 34.3783 106.958 34.2457 107.759 33.9753C108.467 33.7366 109.122 33.3562 109.686 32.856C110.226 32.3673 110.652 31.7598 110.931 31.079C111.233 30.319 111.381 29.5044 111.368 28.6841C111.383 27.8655 111.237 27.0521 110.938 26.2929C110.659 25.6121 110.233 25.0046 109.693 24.5159C109.13 24.0118 108.475 23.6276 107.766 23.3857C106.965 23.1153 106.126 22.9827 105.282 22.9932H103.945V34.3678H105.275Z" fill="white"/>
    <path d="M123.02 38.0055H118.538V19.3591H123.02V38.0055Z" fill="white"/>
    <path d="M137.972 34.3969H131.003L129.882 38.0055H125.269L132.039 19.3591H136.961L143.741 38.0055H139.129L137.972 34.3969ZM132.149 30.7628H136.826L134.502 22.8951L132.149 30.7628Z" fill="white"/>
    <path d="M157.682 38.0055L150.163 26.8925V38.0055H145.845V19.3591H150.163L157.682 30.4757V19.3591H162V38.0055H157.682Z" fill="white"/>
</svg>
