<svg width="18" height="18" viewBox="0 0 18 18" fill="none" xmlns="http://www.w3.org/2000/svg">
    <path d="M16.7927 4.50119C14.3079 0.197314 8.80428 -1.27739 4.50075 1.2079C0.196868 3.6924 -1.27789 9.19577 1.2074 13.4995C3.69189 17.8034 9.19532 19.2783 13.4989 16.7932C17.8028 14.3079 19.2783 8.80478 16.7927 4.50119ZM12.5993 15.2341C9.15669 17.2224 4.75355 16.0426 2.76584 12.5993C0.777673 9.15674 1.95791 4.75365 5.40061 2.76634C8.84342 0.778175 13.2463 1.95789 15.2342 5.40105C17.222 8.84416 16.0422 13.2463 12.5993 15.2341ZM12.2394 8.63468L7.52753 5.8866C7.09814 5.63592 6.75181 5.83634 6.75421 6.33301L6.77834 11.7877C6.78052 12.2842 7.1311 12.4864 7.56175 12.2376L12.2376 9.53804C12.6678 9.28976 12.6687 8.88536 12.2394 8.63468Z" fill="white"/>
</svg>
