<svg width="23" height="23" viewBox="0 0 23 23" fill="none" xmlns="http://www.w3.org/2000/svg">
    <path fill-rule="evenodd" clip-rule="evenodd" d="M11.0538 11.9462L0.446176 11.9462C0.19976 11.9462 1.0945e-07 11.7464 2.44464e-07 11.5C3.79477e-07 11.2536 0.19976 11.0538 0.446176 11.0538H11.0538L11.0538 0.446175C11.0538 0.199759 11.2536 0 11.5 0C11.7464 0 11.9462 0.199759 11.9462 0.446174L11.9462 11.0538H22.5538C22.8002 11.0538 23 11.2536 23 11.5C23 11.7464 22.8002 11.9462 22.5538 11.9462L11.9462 11.9462V22.5538C11.9462 22.8002 11.7464 23 11.5 23C11.2536 23 11.0538 22.8002 11.0538 22.5538V11.9462Z" fill="#AEAEAE"/>
</svg>
