<svg width="48" height="48" viewBox="0 0 48 48" fill="none" xmlns="http://www.w3.org/2000/svg">
    <path fill-rule="evenodd" clip-rule="evenodd" d="M35.7379 14.1403C37.0229 14.4863 38.0361 15.4994 38.3821 16.7844C39.0246 19.132 38.9999 24.0249 38.9999 24.0249C38.9999 24.0249 38.9999 28.8931 38.3821 31.2407C38.0361 32.5257 37.0229 33.5389 35.7379 33.8849C33.3903 34.5027 23.9999 34.5027 23.9999 34.5027C23.9999 34.5027 14.6342 34.5027 12.2619 33.8602C10.9769 33.5142 9.96375 32.501 9.61779 31.216C9 28.8931 9 24.0002 9 24.0002C9 24.0002 9 19.132 9.61779 16.7844C9.96375 15.4994 11.0016 14.4616 12.2619 14.1156C14.6095 13.4978 23.9999 13.4978 23.9999 13.4978C23.9999 13.4978 33.3903 13.4978 35.7379 14.1403ZM28.8187 24.0002L21.0098 28.4977V19.5027L28.8187 24.0002Z" fill="#2F3030"/>
</svg>
